<svg xmlns="http://www.w3.org/2000/svg" width="725.629" height="457.451" viewBox="0 0 725.629 457.451"><g transform="translate(-712.258 -201.97)"><g transform="translate(712.258 195.97)"><g transform="translate(0 0)"><path d="M536.75,350.515l9.394,5.415,9.383-5.415-9.383-5.415Z" transform="translate(-423.376 -221.361)" fill="#bbb0cc"/><path d="M1112.7,535.934l-1.458.84-214.1,123.588-37.065,21.394a20.99,20.99,0,0,1-20.947,0l-1.362-.787-71.512-41.288a23.149,23.149,0,0,0-23.128,0L706.8,660.7a22.915,22.915,0,0,1-22.947,0L660.122,647,556.928,587.425,434.18,516.466l-.128-.064a7.755,7.755,0,0,1,0-13.426l128.726-74.342a3.936,3.936,0,0,1,3.936,0l67.331,38.831a3.915,3.915,0,0,0,3.947,0L766.166,393.25l5.585-3.192.83-.457a3.192,3.192,0,0,0,.649-.372,3.607,3.607,0,0,0,1.223-2.841,3.9,3.9,0,0,0-1.968-3.415,3.947,3.947,0,0,1,0-6.841l41.437-23.947a22.958,22.958,0,0,1,23.649.394l275.315,171.664a6.83,6.83,0,0,1-.192,11.692Z" transform="translate(-430.181 -221.105)" fill="#b7bad2"/><path d="M1111,535.962,896.9,659.55l-37.065,21.394a20.99,20.99,0,0,1-20.947,0l-1.362-.787-71.512-41.288a23.149,23.149,0,0,0-23.128,0l-36.32,21.022a22.915,22.915,0,0,1-22.947,0l-23.735-13.7L556.688,586.612,433.94,515.653l128.641-74.268a3.936,3.936,0,0,1,3.936,0l67.331,38.831a3.915,3.915,0,0,0,3.947,0l134.45-77.661a3.947,3.947,0,0,0,0-6.83,3.936,3.936,0,0,1-.67-6.383,3.544,3.544,0,0,1,.67-.5l.66-.383,40.778-23.543a22.958,22.958,0,0,1,23.649.394l33.745,21.043,114.066,71.119Z" transform="translate(-429.941 -220.292)" fill="#1e2d64"/><path d="M754.287,384.12v13.564l-7.979,1.723L746,391.014l5.585-3.192.83-.457a3.191,3.191,0,0,0,.649-.372,3.607,3.607,0,0,0,1.223-2.872Z" transform="translate(-410.014 -218.869)" fill="#b7bad2"/><path d="M969.707,456.009,802.544,552.522a32.2,32.2,0,0,1-32.182,0l-90.7-52.363a7.915,7.915,0,0,1,0-13.713L855.64,384.89Z" transform="translate(-414.503 -218.82)" fill="#0f1446"/><path d="M790.878,510.626,982.217,400.142a13.592,13.592,0,0,0,0-23.542l-76.808-44.379a20.914,20.914,0,0,0-20.934,0L679.293,450.588a7.187,7.187,0,0,0,0,12.452l82.363,47.586A29.241,29.241,0,0,0,790.878,510.626Z" transform="translate(-405.676 -199.831)" fill="#83b9fd"/><path d="M790.878,510.626,982.217,400.142a13.592,13.592,0,0,0,0-23.542l-76.808-44.379a20.914,20.914,0,0,0-20.934,0L679.293,450.588a7.187,7.187,0,0,0,0,12.452l82.363,47.586A29.241,29.241,0,0,0,790.878,510.626Z" transform="translate(-478.816 -241.445)" fill="#abb1f4"/><path d="M790.878,497.837,982.217,387.392a13.592,13.592,0,0,0,0-23.542l-76.808-44.379a20.914,20.914,0,0,0-20.934,0L679.293,437.838a7.187,7.187,0,0,0,0,12.452l82.363,47.548a29.241,29.241,0,0,0,29.222,0Z" transform="translate(-405.676 -199.398)" fill="#e1f3ff"/><path d="M790.878,497.837,982.217,387.392a13.592,13.592,0,0,0,0-23.542l-76.808-44.379a20.914,20.914,0,0,0-20.934,0L679.293,437.838a7.187,7.187,0,0,0,0,12.452l82.363,47.548a29.241,29.241,0,0,0,29.222,0Z" transform="translate(-478.816 -241.012)" fill="#e1f3ff"/><path d="M802.14,409.89l.064,13.7,47.427,27.384v-13.7Z" transform="translate(-406.429 -217.223)" fill="#a87373"/><g transform="translate(267.084 48.601)"><ellipse cx="13.011" cy="7.511" rx="13.011" ry="7.511" transform="translate(53.673 162.366) rotate(-60)" fill="#4e475e"/><path d="M930.315,396.315c0,5.862-4.117,13-9.2,15.958s-9.2.553-9.2-5.319,4.128-13,9.2-15.958S930.315,390.443,930.315,396.315Z" transform="translate(-795.13 -280.983)" fill="#4e475e"/><ellipse cx="13.011" cy="7.511" rx="13.011" ry="7.511" transform="translate(148.604 107.588) rotate(-60)" fill="#4e475e"/><path d="M846.78,452.621,941.7,397.8V384.13L846.78,438.918Z" transform="translate(-799.289 -281.341)" fill="#1e2d64"/><path d="M849.63,441.14l130.482-75.331-35.6-16.479L802.14,413.757Z" transform="translate(-802.139 -283.563)" fill="#424bb1"/><path d="M849.63,440.563,802.14,413.179V358.37l47.491,27.4Z" transform="translate(-802.139 -282.986)" fill="#c0c2d1"/><path d="M936,399.033l35.565-20.511v-13.7L936,385.363Z" transform="translate(-793.592 -282.574)" fill="#1e2d64"/><path d="M947.13,381.812V313.3s23.735,0,23.735,27.4v27.4Z" transform="translate(-792.881 -285.863)" fill="#424bb1"/><path d="M902.49,356.054V287.51s23.734.128,23.734,27.437v27.4Z" transform="translate(-795.732 -287.51)" fill="#424bb1"/><path d="M902.49,355.821l47.49,27.4,11.734-65.161L915.022,291.15Z" transform="translate(-795.732 -287.278)" fill="#424bb1"/><path d="M903.212,287.51l-11.862,6.851L938.819,321.8l11.862-6.851Z" transform="translate(-796.443 -287.51)" fill="#86cce8"/><path d="M891.35,293.95v7.5l47.469,27.128v-7.192Z" transform="translate(-796.443 -287.099)" fill="#41b8e4"/><path d="M935.97,327.343l11.862-7.192V313.3l-11.862,6.851Z" transform="translate(-793.594 -285.863)" fill="#00a4e1"/><path d="M878.825,431.035c0,5.862-4.128,13-9.2,15.958s-9.2.553-9.2-5.319,4.117-13,9.2-15.958S878.825,425.163,878.825,431.035Z" transform="translate(-798.418 -278.767)" fill="#433a51"/><path d="M874.552,433.043a11.4,11.4,0,0,1-5.181,8.968c-1.99,1.149-3.713.851-4.585-.553a4.629,4.629,0,0,1-.6-2.436,11.479,11.479,0,0,1,5.181-8.968,3.192,3.192,0,0,1,5.181,2.989Z" transform="translate(-798.177 -278.456)" fill="#c0c2d1"/><path d="M873.648,432.167a11.4,11.4,0,0,1-5.181,8.968,3.607,3.607,0,0,1-3.681.351,4.629,4.629,0,0,1-.6-2.436,11.479,11.479,0,0,1,5.181-8.968,3.628,3.628,0,0,1,3.681-.351A4.531,4.531,0,0,1,873.648,432.167Z" transform="translate(-798.177 -278.451)" fill="#efeff4"/><ellipse cx="13.011" cy="7.511" rx="13.011" ry="7.511" transform="translate(117.497 130.862) rotate(-60)" fill="#433a51"/><path d="M930.3,400.873a11.4,11.4,0,0,1-5.181,8.968c-1.989,1.149-3.713.851-4.585-.553a4.628,4.628,0,0,1-.6-2.436,11.479,11.479,0,0,1,5.181-8.968,3.192,3.192,0,0,1,5.181,2.989Z" transform="translate(-794.618 -280.51)" fill="#c0c2d1"/><path d="M929.4,399.967a11.4,11.4,0,0,1-5.181,8.968,3.628,3.628,0,0,1-3.681.351,4.628,4.628,0,0,1-.6-2.436,11.478,11.478,0,0,1,5.181-8.968,3.606,3.606,0,0,1,3.681-.351,4.51,4.51,0,0,1,.6,2.436Z" transform="translate(-794.618 -280.508)" fill="#efeff4"/><ellipse cx="13.011" cy="7.511" rx="13.011" ry="7.511" transform="translate(153.129 110.305) rotate(-60)" fill="#433a51"/><path d="M963.792,381.553a11.447,11.447,0,0,1-5.181,8.968c-1.989,1.149-3.723.851-4.585-.553a4.533,4.533,0,0,1-.6-2.436,11.426,11.426,0,0,1,5.181-8.968,3.192,3.192,0,0,1,5.181,2.989Z" transform="translate(-792.479 -281.743)" fill="#c0c2d1"/><path d="M962.888,380.647a11.447,11.447,0,0,1-5.181,8.968,3.628,3.628,0,0,1-3.681.351,4.533,4.533,0,0,1-.6-2.436,11.426,11.426,0,0,1,5.181-8.968,3.638,3.638,0,0,1,3.681-.362,4.67,4.67,0,0,1,.6,2.447Z" transform="translate(-792.479 -281.741)" fill="#efeff4"/><path d="M846.78,442.21V387.421L941.7,332.58v54.841Z" transform="translate(-799.289 -284.632)" fill="#efeff4"/><path d="M858.135,380.419h0c2.245-1.3,4.075.085,4.075,3.085v38.2c0,3-1.83,6.5-4.075,7.8h0c-2.255,1.3-4.085-.085-4.085-3.085v-38.2C854.05,385.217,855.88,381.717,858.135,380.419Z" transform="translate(-798.825 -281.609)" fill="#c0c2d1"/><path d="M869.315,374.129h0c2.255-1.3,4.075.085,4.075,3.085v38.2c0,3.011-1.819,6.5-4.075,7.8h0c-2.255,1.3-4.085-.074-4.085-3.085v-38.2C865.23,378.927,867.113,375.438,869.315,374.129Z" transform="translate(-798.111 -282.011)" fill="#c0c2d1"/><path d="M880.435,367.539h0c2.255-1.3,4.085.085,4.085,3.085v38.2c0,3-1.83,6.5-4.085,7.8h0c-2.245,1.3-4.075-.085-4.075-3.085v-38.2C876.36,372.316,878.19,368.837,880.435,367.539Z" transform="translate(-797.4 -282.431)" fill="#c0c2d1"/><path d="M891.635,362.33h0c2.255-1.309,4.085.074,4.085,3.085v38.192c0,3.011-1.83,6.5-4.085,7.809h0c-2.255,1.3-4.085-.085-4.085-3.085v-38.2C887.55,367.117,889.38,363.627,891.635,362.33Z" transform="translate(-796.686 -282.764)" fill="#c0c2d1"/><path d="M902.745,354.669h0c2.255-1.3,4.085.085,4.085,3.1v38.192c0,3.011-1.83,6.5-4.085,7.8h0c-2.245,1.309-4.075-.074-4.075-3.085V362.5C898.67,359.467,900.5,355.978,902.745,354.669Z" transform="translate(-795.976 -283.253)" fill="#c0c2d1"/><path d="M913.925,348.219h0c2.255-1.3,4.085.074,4.085,3.085v38.2c0,3-1.83,6.489-4.085,7.8h0c-2.255,1.3-4.075-.085-4.075-3.085v-38.2C909.85,353.007,911.669,349.517,913.925,348.219Z" transform="translate(-795.262 -283.665)" fill="#c0c2d1"/><path d="M925.085,341.78h0c2.255-1.309,4.075.074,4.075,3.085v38.192c0,3.011-1.819,6.5-4.075,7.809h0c-2.255,1.3-4.085-.085-4.085-3.1V349.578C921,346.567,922.83,343.109,925.085,341.78Z" transform="translate(-794.55 -284.076)" fill="#c0c2d1"/><path d="M802.14,361.661l94.938-54.841,47.469,27.4L849.63,389.066Z" transform="translate(-802.139 -286.277)" fill="#e5e5ea"/><path d="M967.092,342.428l-17.022,9.841V318.64a17.37,17.37,0,0,1,6.255,1.543h0C967.623,325.555,967.092,342.428,967.092,342.428Z" transform="translate(-792.693 -285.522)" fill="#c0c2d1"/><path d="M966.192,341.96,950,351.289V318.64a17.369,17.369,0,0,1,6.255,1.543h0C966.692,326,966.192,341.96,966.192,341.96Z" transform="translate(-792.698 -285.522)" fill="#efeff4"/><path d="M47.193,130.611-.3,103.193V116.21l47.5,28.213Z" transform="translate(0.303 26.937)" fill="#1e2d64"/></g><path d="M986.637,352.49l-8.947,5.181,4,4.5,4.99-2.372Z" transform="translate(-395.22 -220.889)" fill="#5f546f"/><path d="M779.832,450.586l59.331-34.256v54.81L779.8,505.375Z" transform="translate(-407.856 -216.812)" fill="#efeff4"/><path d="M735.2,422.75l47.5,27.426-.032,54.789L734.8,477.836Z" transform="translate(-410.729 -216.402)" fill="#c0c2d1"/><path d="M782.681,452.23,735.18,424.8l59.342-34.224,47.49,27.394Z" transform="translate(-410.705 -218.456)" fill="#83b9fd"/><path d="M782.681,439.48l-47.5-27.426,59.342-34.224,47.49,27.394Z" transform="translate(-410.705 -219.271)" fill="#83b9fd"/><path d="M779.83,437.836v7.234l59.331-34.256V403.58Z" transform="translate(-407.854 -217.626)" fill="#5866f2"/><path d="M735.18,417.234V410l47.5,27.426v7.234Z" transform="translate(-410.705 -217.216)" fill="#424bb1"/><path d="M1090.311,581.781l-156.9,90.587a21.862,21.862,0,0,1-21.83,0l-25.373-14.649-70.417-40.65L777.25,594.813a6.011,6.011,0,0,1,0-10.415l29.2-16.862a18.542,18.542,0,0,1,18.532,0l28.245,16.3a19.884,19.884,0,0,0,19.915,0l72.97-42.129a7.99,7.99,0,0,0,0-13.83l-23.873-13.83a7.724,7.724,0,0,1,0-13.394l12.617-7.3a22.8,22.8,0,0,1,22.777,0l132.673,76.6a6.809,6.809,0,0,1,0,11.83Z" transform="translate(-408.211 -212.089)" fill="#83b9fd"/><path d="M909.73,507.656l.043-14.926,13.447,4.564L921.188,508.6Z" transform="translate(-399.559 -211.934)" fill="#83b9fd"/><path d="M774.25,584.46V570.8l5.936.4,1.915,12.436Z" transform="translate(-408.21 -206.949)" fill="#83b9fd"/><path d="M1075.081,571.53l-.021-13-7.4,1.7-1.755,8.543Z" transform="translate(-389.587 -207.732)" fill="#83b9fd"/><path d="M779.83,454.836l94.928,123.322,59.32-34.245L839.161,420.58,779.83,450.315Z" transform="translate(-407.854 -216.541)" fill="#c0c2d1"/><path d="M1090.3,557.25l-132.663-76.6a22.8,22.8,0,0,0-22.777,0l-12.628,7.287a7.745,7.745,0,0,0,0,13.4l23.884,13.777a8.011,8.011,0,0,1,0,13.83l-72.97,42.118a19.884,19.884,0,0,1-19.915,0l-28.245-16.3a18.543,18.543,0,0,0-18.532,0l-29.2,16.873a6.011,6.011,0,0,0,0,10.415L911.583,659.6a21.809,21.809,0,0,0,21.83,0L1090.3,569.027a6.787,6.787,0,0,0,0-11.777Z" transform="translate(-408.211 -212.9)" fill="#e1f3ff"/><path d="M934.078,539.663,874.758,573.9l-12.373-16.086-4.447-5.777L840.48,529.365l-4.458-5.787-17.447-22.671-4.458-5.787L796.66,472.438l-4.447-5.777L779.83,450.586l59.331-34.256,12.373,16.086,4.458,5.787,17.447,22.671,4.447,5.777,17.458,22.681,4.447,5.787,17.458,22.671,4.447,5.787Z" transform="translate(-407.854 -216.812)" fill="#5968f6"/><path d="M855.248,437.237l-59.331,34.235L791.47,465.7l59.321-34.245Z" transform="translate(-407.111 -215.847)" fill="#efeff4"/><path d="M875.827,463.977l-59.31,34.256-4.458-5.787L871.38,458.2Z" transform="translate(-405.796 -214.139)" fill="#efeff4"/><path d="M896.417,490.737l-59.31,34.245L832.65,519.2l59.32-34.245Z" transform="translate(-404.481 -212.431)" fill="#efeff4"/><path d="M917.007,517.487,857.7,551.722l-4.447-5.777L912.56,511.7Z" transform="translate(-403.166 -210.722)" fill="#efeff4"/><path d="M872.674,643.737l-37.065,21.394a20.99,20.99,0,0,1-20.947,0l-1.362-.787V609.46Z" transform="translate(-405.717 -204.48)" fill="#acafbc"/><path d="M780.634,563.439l-128.12,73.949L549.32,577.812l136.833-79,94.5,54.576a5.809,5.809,0,0,1-.021,10.053Z" transform="translate(-422.573 -211.546)" fill="#0f1446"/><path d="M505.6,512.622,557.608,482.6l65.682,37.916-56.3,32.416-61.384-35.309a2.894,2.894,0,0,1-.011-5Z" transform="translate(-425.457 -212.581)" fill="#83b9fd"/><path d="M504.16,503.01v10.745l9.9-5.66Z" transform="translate(-425.457 -211.277)" fill="#83b9fd"/><path d="M505.6,502.462l52.012-30.022,65.682,37.916-56.3,32.416-61.384-35.309a2.894,2.894,0,0,1-.011-5Z" transform="translate(-425.457 -213.229)" fill="#e1f3ff"/><path d="M519.11,473.416l28.16,16.256,28.15-16.256L547.27,457.16Z" transform="translate(-424.502 -214.205)" fill="#e1f3ff"/><path d="M519.11,503.976l28.16,16.256,28.15-16.256L547.27,487.72Z" transform="translate(-424.502 -212.254)" fill="#83b9fd"/><path d="M519.11,472.44,547.27,488.7l-28.16,16.256Z" transform="translate(-424.502 -213.229)" fill="#83b9fd"/><path d="M573.73,472.44,545.58,488.7l28.15,16.256Z" transform="translate(-422.812 -213.229)" fill="#bbb0cc"/><path d="M536.75,472.765l9.394,5.415,9.383-5.415-9.383-5.415Z" transform="translate(-423.376 -213.554)" fill="none" stroke="#2e3191" stroke-miterlimit="10" stroke-width="0.25"/><path d="M536.75,350.19V480.246l9.394,5.415V355.605Z" transform="translate(-423.376 -221.036)" fill="#5f546f"/><path d="M545.58,355.605l9.383-5.415V480.246l-9.383,5.415Z" transform="translate(-422.812 -221.036)" fill="#5f546f"/><path d="M770.053,518.54l-.021,10.181-9.351-6.415Z" transform="translate(-409.077 -210.286)" fill="#83b9fd"/><path d="M595.908,646.136,784.816,537.09a5.819,5.819,0,0,0,0-10.085l-94.5-54.565L483.82,591.656l94.364,54.48a17.7,17.7,0,0,0,17.724,0Z" transform="translate(-426.756 -213.229)" fill="#83b9fd"/><path d="M595.908,635.947,784.816,526.88a5.809,5.809,0,0,0,0-10.075l-94.5-54.576L483.82,581.467l94.364,54.48A17.7,17.7,0,0,0,595.908,635.947Z" transform="translate(-426.756 -213.881)" fill="#e1f3ff"/><path d="M661.89,582.586l11.873-6.862-10.319-4.575Z" transform="translate(-415.385 -206.926)" fill="#424bb1"/><path d="M676.57,495.59l57.735-33.331v43.352L676.57,538.943Z" transform="translate(-414.448 -213.879)" fill="#00aeef"/><path d="M733.093,463.562,695.55,441.87v10.841l28.171,16.266Z" transform="translate(-413.236 -215.181)" fill="#41b8e4"/><path d="M696.762,441.87,676.57,453.54v10.841l20.192-11.66Z" transform="translate(-414.448 -215.181)" fill="#efeff4"/><path d="M704.37,437.174l9.67-5.585a6.075,6.075,0,0,1,9.107,5.266v21.979l-18.777-10.8Z" transform="translate(-412.673 -215.89)" fill="#6f7cff"/><path d="M720.966,432.11,757.51,453.1l-15.6,5.66L704.37,437.089Z" transform="translate(-412.673 -215.805)" fill="#6f7cff"/><path d="M704.37,447.611V436.77l37.543,21.681v43.363l-9.383,5.426V463.866Z" transform="translate(-412.673 -215.507)" fill="#424bb1"/><path d="M739.67,457.544l9.66-5.575a6.064,6.064,0,0,1,9.107,5.255v32.841L739.67,500.9Z" transform="translate(-410.419 -214.589)" fill="#5866f2"/><path d="M676.57,548.157l85.9-49.6V487.73l-85.9,49.586Z" transform="translate(-414.448 -212.253)" fill="#fff"/><path d="M676.57,545.084l55.32-31.916a3.691,3.691,0,0,0,1.851-3.192V508.36a1.989,1.989,0,0,0-2.989-1.734L676.57,537.893Z" transform="translate(-414.448 -211.064)" fill="#5866f2"/><path d="M676.57,566.9l20.192-11.649V533.57L676.57,545.23Z" transform="translate(-414.448 -209.326)" fill="#5866f2"/><path d="M704.37,528.806v10.819l9.394,5.426V523.38Z" transform="translate(-412.673 -209.977)" fill="#424bb1"/><path d="M713.2,545.7l18.766-10.841V513.2l-18.756,10.83Z" transform="translate(-412.109 -210.627)" fill="#5866f2"/><path d="M739.66,508.751v21.66l18.777-10.83V497.91Z" transform="translate(-410.419 -211.603)" fill="#5866f2"/><path d="M730.85,524.356l9.372,5.4V508.1l-9.372,5.415Z" transform="translate(-410.982 -210.952)" fill="#424bb1"/><path d="M696.773,452.06l28.16,16.266L676.57,496.242V463.73Z" transform="translate(-414.448 -214.531)" fill="#86cce8"/><path d="M694.281,457.289l5.606,3.192a.83.83,0,0,1,0,1.564l-4.255,2.479a3.021,3.021,0,0,1-2.7,0l-5.607-3.192a.83.83,0,0,1,0-1.564l4.255-2.479A3.021,3.021,0,0,1,694.281,457.289Z" transform="translate(-413.796 -214.217)" fill="#424bb1"/><path d="M716.286,468.2l-12.277-7.107c-.191-.117-.191-.3,0-.4h0a.745.745,0,0,1,.7,0l12.309,7.107c.192.106.192.287,0,.4h0A.787.787,0,0,1,716.286,468.2Z" transform="translate(-412.705 -213.986)" fill="#424bb1"/><path d="M713.657,469.706,701.349,462.6c-.192-.106-.192-.287,0-.4h0a.787.787,0,0,1,.691,0l12.32,7.107c.191.117.191.3,0,.4h0A.745.745,0,0,1,713.657,469.706Z" transform="translate(-412.875 -213.889)" fill="#424bb1"/><path d="M710.747,471.456l-12.309-7.117c-.192-.106-.192-.287,0-.4h0a.787.787,0,0,1,.692,0l12.319,7.117c.191.106.191.287,0,.4h0A.809.809,0,0,1,710.747,471.456Z" transform="translate(-413.06 -213.778)" fill="#424bb1"/><path d="M707.747,473.115l-12.3-7.085c-.191-.117-.191-.3,0-.4h0a.724.724,0,0,1,.692,0l12.319,7.107c.191.117.191.287,0,.4h0A.809.809,0,0,1,707.747,473.115Z" transform="translate(-413.251 -213.67)" fill="#424bb1"/><path d="M704.807,474.816,692.5,467.709c-.192-.106-.192-.287,0-.4h0a.787.787,0,0,1,.691,0l12.319,7.128c.191.117.191.3,0,.4h0a.745.745,0,0,1-.7-.021Z" transform="translate(-413.44 -213.562)" fill="#424bb1"/><path d="M536.761,648.526,564.9,632.281V615.887a3.053,3.053,0,0,0-4.585-2.649l-14.181,8.213V599.77l-9.394,5.415Z" transform="translate(-423.376 -205.099)" fill="#8291db"/><path d="M562,612.5l9.192,5.341-11.107,4.734Z" transform="translate(-421.885 -204.286)" fill="#8291db"/><path d="M545.581,653.646,573.688,637.4V620.965a3.064,3.064,0,0,0-4.6-2.649l-14.181,8.2V604.89l-9.351,5.436Z" transform="translate(-422.813 -204.772)" fill="#9ca6ef"/><path d="M466.17,564.456l9.394-5.426,84.449,48.788-9.383,5.415Z" transform="translate(-427.883 -207.7)" fill="#e5b5b1"/><path d="M466.17,564.13v43.352l84.481,48.767-.021-43.341Z" transform="translate(-427.883 -207.375)" fill="#abb1f4"/><g transform="translate(426.791 299.228)"><path d="M669,494.93s13.077,5.044,25.838,3.518,17.97,6.986,17.97,6.986l1.551-.542,5.788,8.827,1.778.177L705.708,482.37Z" transform="translate(-639.946 -402.784)" fill="#b7bad2"/><path d="M651.574,460.923H646s.139,10.088,9.962,25.22,19.092,20.176,19.092,20.176,24.855,8.007,38.751-11.223c0,0-5.46-50.907-12.207-56.052S651.574,460.923,651.574,460.923Z" transform="translate(-645.95 -414.262)" fill="#1e2d64"/><path d="M699.213,438.2s-6-3.985-9.937-3.632-17.364,6.519-25.662,11.046c-13.089,7.125-17.654,16.318-17.654,16.318h5.612Z" transform="translate(-645.96 -415.267)" fill="#1e2d64"/><path d="M663.691,450.745s-11.652,6.885-13.2,10.668,1.564,15.687,27.654,28.928c9.685,4.905,26.671-8.285,26.671-8.285s.139-32.572-2.938-40.075-12.219-5.548-16.217-4.149S663.691,450.745,663.691,450.745Z" transform="translate(-644.864 -414.752)" fill="#4e5e9b"/><path d="M693.942,458.588s-.656,1.854-.315,1.929,2.182-1.425,2.4-1.1,1.614,3.871,1.614,3.871,6.381-3.619,5.826-4.6-.984-2.8-1.967-3.291a42.872,42.872,0,0,0-4.716-1.387,3.43,3.43,0,0,0-3.544,1.639C692.467,457.012,693.942,458.588,693.942,458.588Z" transform="translate(-633.678 -410.199)" fill="#f9c4aa"/><path d="M697.354,457.283l-2.837,5.725a1.551,1.551,0,0,1-1.261.794c-1.021.151-6.305.467-6.709,0s-3.014-11.828-4.893-19.987c-1.047-4.514-1.8-7.995-1.7-7.995.29,0,4.313-.189,6.734,5.334s2.245,14.691,2.623,15.246,6.986,0,7.566.429Z" transform="translate(-637.09 -414.934)" fill="#d6e6f9"/><path d="M694.162,462.78a1.551,1.551,0,0,1-1.261.794c-1.021.151-6.305.467-6.709,0s-3.014-11.828-4.893-19.987a36.311,36.311,0,0,1,.681-6.9s3.581,3.985,4.351,8.146,2.774,18.2,4.351,18.272a17.655,17.655,0,0,0,3.481-.328Z" transform="translate(-636.736 -414.707)" fill="#c5d8ea"/><path d="M694.777,466.4l-12.61,5.675-7.213,3.266h0c-.542-.605-10.984-12.61-13.442-18.449a21.147,21.147,0,0,1-1.261-3.9,20.176,20.176,0,0,1-.265-7.339s.479-2.03,5.385-4.514a78.024,78.024,0,0,1,17.654-5.612c4.59-.782,6.973,5.044,7.566,6.936S694.777,466.4,694.777,466.4Z" transform="translate(-642.356 -415.027)" fill="#d6e6f9"/><path d="M694.379,458.889a6.8,6.8,0,0,1,3.481-4.477s-.631-1.917-3.481-1.564-3.4,5.044-2.837,5.725S694.379,458.889,694.379,458.889Z" transform="translate(-634.114 -410.5)" fill="#efeff4"/><path d="M675.553,441.477v.958s-4.174,2.774-7.314-.933l-.189-6,1.526,1.261Z" transform="translate(-640.194 -415.017)" fill="#f4b49a"/><path d="M675.316,441.229v.378a4.251,4.251,0,0,1-2.282.706c-2.27.151-4.073-5.788-4.073-5.788l.378-.076Z" transform="translate(-639.957 -414.769)" fill="#eda48a"/><path d="M681.793,432.536c0,.076-2.61,9.6-4.06,10.618s-3.266.29-4.817-1.261-5.712-6.419-5.712-6.419-4.161-5.385-2.85-6.507,16.57-1.728,16.57-1.728a7.944,7.944,0,0,1,.87,5.3Z" transform="translate(-641.226 -417.173)" fill="#f9c4aa"/><path d="M667.45,433.35a1.261,1.261,0,0,1,1.942-.769c1.425.757,7.78,1.98,10.088-1.69s1.589-3.329,1.589-3.329l-13.379,1.526Z" transform="translate(-640.351 -417.091)" fill="#eda48a"/><path d="M680.264,431.2s-3.644,4.451-7.856,3.228-3.783,1.084-3.783,1.084-.555-2.434-1.677-2.522-1.173,3.783,1.261,4.527l1.4,2.32-.063,2.005s-5.965-7.112-6.305-10.34,1.261-4.363,1.261-4.363-.265-4.578.391-4.905,1.261,1.728,1.589,1.728,2.522-5.422,10.719-4.628,7.566,14.149,4.666,15.99C681.865,435.326,682.281,432.186,680.264,431.2Z" transform="translate(-641.462 -419.257)" fill="#3d220c"/><path d="M728.916,500.275a26.821,26.821,0,0,1-4.8,2.989h0s-5.7-5.813-6.772-12.207l4.918-.391a2.346,2.346,0,0,0,3.077,1c1.967-1,4.5-2.862,6.646-3.052S729.585,499.43,728.916,500.275Z" transform="translate(-627.328 -401.155)" fill="#bd8487"/><path d="M727.514,500.272a26.821,26.821,0,0,1-4.8,2.989c.076-.34,1.6-6.734,3.783-10.151a14.312,14.312,0,0,1,4.023-4.489C732.722,488.431,728.183,499.427,727.514,500.272Z" transform="translate(-625.927 -401.153)" fill="#8e5d6a"/><path d="M717.189,507.412a27.741,27.741,0,0,1-4.8,2.989h0s-5.712-5.8-6.784-12.207l4.918-.378a2.358,2.358,0,0,0,3.089,1c1.967-1,4.489-2.875,6.633-3.052S717.844,506.618,717.189,507.412Z" transform="translate(-630.393 -399.289)" fill="#bd8487"/><path d="M715.785,507.412a27.74,27.74,0,0,1-4.8,2.989c0-.34,1.589-6.734,3.783-10.151a14.313,14.313,0,0,1,4.023-4.489C720.98,495.622,716.44,506.618,715.785,507.412Z" transform="translate(-628.988 -399.289)" fill="#8e5d6a"/><path d="M733.746,497.669a11.085,11.085,0,0,1-6.368,6.078h0a2.06,2.06,0,0,0-.1-.214c-1.261-2.232-11.349-20.1-14.439-20.643-5.574-.921-15.3-1.475-22.4-3.531A21.639,21.639,0,0,1,684.856,477c-6.305-4.124-4.023-11.2-4.023-11.2l7.692-3.783s27.5,10.378,29.268,11.6S733.746,497.669,733.746,497.669Z" transform="translate(-636.963 -408.095)" fill="#aea4b2"/><path d="M725.953,501.93c-1.261-2.232-11.349-20.1-14.439-20.643-5.574-.921-15.3-1.475-22.4-3.531-3.089-3.783-5.41-8.134-1.917-9.647,0,0,24.048,7.995,25.813,10.088s1.185,3.695,2.358,4.2S724.869,499.736,725.953,501.93Z" transform="translate(-635.651 -406.506)" fill="#8d8491"/><path d="M714.732,511.154a9.369,9.369,0,0,0,7.188-4.414s-11.059-24.716-13.2-26.86-18.058-10.58-18.058-10.58,1.261-1.8.883-2.585-1.929-3.216-1.929-3.216-15.624,4.111-17.453,10.239c0,0,2.182,7.68,12.345,9.294s17.175,4.7,18.209,6.1S714.732,511.154,714.732,511.154Z" transform="translate(-639.121 -407.709)" fill="#aea4b2"/><path d="M691.895,460a4.83,4.83,0,0,1,3.216,3.707s-21.059,7.818-23.014,11.538c0,0-2.9-3.291,0-6.305Z" transform="translate(-639.474 -408.622)" fill="#bacfe2"/><path d="M682.1,469.822l-7.226,3.253c-.542-.605-10.983-12.61-13.442-18.449a21.153,21.153,0,0,1-1.261-3.9l4.666-6.721s3.039-.883,4.426,5.2,4.363,17.654,7.453,18.512a25.227,25.227,0,0,1,5.385,2.106Z" transform="translate(-642.251 -412.808)" fill="#c5d8ea"/><path d="M680.845,470.894s-.82-1.7-2.182-1.69-9.067.605-9.622.24-1.551-20.782-1.829-22.043-3.1-5.485-6.545-4.287c-2.7.946-.227,21.879,0,23.568s.933,10.668,6.305,10.857,11.652.366,12.408-.479Z" transform="translate(-642.448 -413.085)" fill="#d6e6f9"/><path d="M681.215,465.212l-4.161-.2s-3.14,1-1.728,6.305l3.783-.277S677.923,466.8,681.215,465.212Z" transform="translate(-638.39 -407.315)" fill="#efeff4"/><path d="M701.6,461.11l13.72,7.478,1.021-.58v1.122l-23.127,13.1-12.989-8.537Z" transform="translate(-637.015 -408.333)" fill="#efeff4"/><path d="M701.6,460.22l14.741,8.02-23.127,13.1L680.23,472.8Z" transform="translate(-637.015 -408.565)" fill="#dcddeb"/><path d="M699.681,462.49l10.744,5.851-16.847,9.546-9.458-6.229Z" transform="translate(-636 -407.972)" fill="#483f61"/><path d="M680.529,465.213s3.985-.467,4.968,0a11.693,11.693,0,0,1,2.434,2.018l-1.261.832s2.434,3.09,1.955,3.468a35.178,35.178,0,0,1-5.612,2.106c-.416,0-4.161-2.522-4.489-2.623S675.7,466.852,680.529,465.213Z" transform="translate(-637.705 -407.316)" fill="#f9c4aa"/><path d="M690.53,483.289l1.349-16.872,23.455-13.606-1.69,17.389Z" transform="translate(-634.326 -410.499)" fill="#efeff4"/></g><g transform="translate(55.021 6)"><ellipse cx="60.48" cy="34.918" rx="60.48" ry="34.918" transform="translate(0 104.755) rotate(-60)" fill="#fcbb51"/><path d="M487.02,408.7l10.063,6.7.555-6.948Z" transform="translate(-457.298 -286.782)" fill="#fcbb51"/><path d="M537.058,326.37l10.479,7.012L533.3,334.516Z" transform="translate(-445.218 -308.21)" fill="#fcbb51"/><ellipse cx="60.48" cy="34.918" rx="60.48" ry="34.918" transform="translate(11.293 112.289) rotate(-60)" fill="#ffcd5e"/><path d="M561.419,360.663c0,22.384-15.725,49.636-35.107,60.809-12.383,7.15-23.215,6.053-29.419-1.463-2.787-4.187-4.363-9.937-4.363-17.012,0-22.434,15.725-49.636,35.107-60.847,12.333-7.112,23.215-6.028,29.419,1.5C559.843,347.825,561.419,353.588,561.419,360.663Z" transform="translate(-455.86 -305.339)" fill="#f9d895"/><path d="M519.714,403.126q-3.4,1.16-5.2-.719t-1.778-6.431v-3.115l6.091-3.518v3.594c0,2.749,1.122,3.481,3.342,2.194a6.608,6.608,0,0,0,3.354-6.192,6.306,6.306,0,0,0-1.185-4.1A9.053,9.053,0,0,0,520,382.318a10.883,10.883,0,0,1-5.511-3.518,10.353,10.353,0,0,1-1.576-6.129,19.737,19.737,0,0,1,1.728-8.247,18.438,18.438,0,0,1,5.044-6.659v-4.136l5.284-3.039v4.124c2.257-.757,3.985-.53,5.157.719s1.766,3.367,1.766,6.394v1.362l-6.1,3.518v-1.728q0-4.2-3.228-2.333a6.305,6.305,0,0,0-3.228,5.927,5.725,5.725,0,0,0,1.173,3.783,9.912,9.912,0,0,0,4.338,2.522,11.11,11.11,0,0,1,5.523,3.619,10.882,10.882,0,0,1,1.576,6.305,20.631,20.631,0,0,1-1.791,8.588,18.376,18.376,0,0,1-5.183,6.759v4.742l-5.259,2.964Z" transform="translate(-450.585 -301.887)" fill="#ea9f32"/></g><g transform="translate(113.374 77.108)"><path d="M565.69,308.917l11.724-6.787-1.117,10.9Z" transform="translate(-534.902 -301.212)" fill="#424bb1"/><path d="M581.782,540l91.353,52.735a6.67,6.67,0,0,0,10.011-5.777V369.07a16.35,16.35,0,0,0-8.178-14.158L583.6,302.164a6.67,6.67,0,0,0-10.011,5.777v217.9A16.362,16.362,0,0,0,581.781,540Z" transform="translate(-534.398 -301.267)" fill="#424bb1"/><path d="M570.34,546.6l91.353,52.746a6.681,6.681,0,0,0,10.011-5.787V375.669a16.342,16.342,0,0,0-8.183-14.161l-91.341-52.745a6.681,6.681,0,0,0-10.011,5.787V532.481A16.352,16.352,0,0,0,570.34,546.6Z" transform="translate(-535.127 -300.845)" fill="#5866f2"/><path d="M658.8,394.636V556.342a6.49,6.49,0,0,1-1.277,3.926,6.66,6.66,0,0,1-8.734,1.862L581.77,523.437a16.362,16.362,0,0,1-8.17-14.16V347.571a6.67,6.67,0,0,1,10.011-5.787l67.023,38.692A16.351,16.351,0,0,1,658.8,394.636Z" transform="translate(-534.397 -298.737)" fill="#c0c2d1"/><path d="M658.716,394.664V556.37a6.49,6.49,0,0,1-1.277,3.926,6.607,6.607,0,0,1-7.309.426l-67.023-38.682A16.352,16.352,0,0,1,575,507.847V346.141a5.16,5.16,0,0,1,8.585-4.362l67.023,38.692a16.351,16.351,0,0,1,8.107,14.192Z" transform="translate(-534.309 -298.765)" fill="#3a3354"/><path d="M613.094,544.266a6.192,6.192,0,0,1-.947,3.575c-1.234,1.777-3.564,2.128-6.234.574a15.894,15.894,0,0,1-7.192-12.447,5.213,5.213,0,0,1,1.872-4.5c1.309-.9,3.192-.862,5.319.351A15.883,15.883,0,0,1,613.094,544.266Z" transform="translate(-532.794 -286.608)" fill="#c0c2d1"/><path d="M613.038,544.266a6.192,6.192,0,0,1-.947,3.575c-1.308.9-3.191.862-5.319-.351a15.958,15.958,0,0,1-7.192-12.447,6.257,6.257,0,0,1,.947-3.575c1.309-.9,3.192-.862,5.319.351a15.883,15.883,0,0,1,7.192,12.447Z" transform="translate(-532.738 -286.608)" fill="#eff3f9"/><path d="M640.6,338.327l14.575,6.979a2.351,2.351,0,0,1,0,4.192l-1.064.638a5.234,5.234,0,0,1-4.766,0l-14.575-8.415a2.426,2.426,0,0,1,0-4.181l1.064.787a5.256,5.256,0,0,1,4.766,0Z" transform="translate(-530.567 -298.951)" fill="#efeff4"/><path d="M640.589,336.974l14.575,8.4c1.319.766,1.319,2,0,2.755l-1.064.649a5.319,5.319,0,0,1-4.766,0l-14.575-8.415c-1.319-.766-1.319-2,0-2.755l1.064-.638a5.256,5.256,0,0,1,4.766,0Z" transform="translate(-530.555 -299.023)" fill="#fff"/><path d="M583.811,411.07l63.555,36.682v42.671c0,4.521-3.192,6.383-7.085,4.1L590.885,466A15.671,15.671,0,0,1,583.8,453.73Z" transform="translate(-533.746 -294.256)" fill="#c168eb"/><path d="M647.365,447.762l-31.777,11.309-31.777-48Z" transform="translate(-533.745 -294.256)" fill="#a458c7"/><path d="M647.231,480.761v7.468l-61.5-35.405V445.59l6.5,3.713.01.011Z" transform="translate(-533.622 -292.051)" fill="#5f546f"/><path d="M593.07,452.06l56.32,32.522s-18.788,5.17-28.182,48.778-28.139,59.576-28.139,59.576l-56.32-32.511s21.511-15.554,24.83-57.682S593.07,452.06,593.07,452.06Z" transform="translate(-536.75 -291.638)" fill="#e5e5ea"/><path d="M581.436,467.35l14.968,8.639s-6.2,5.319-9.256,16.33L572,483.616S574,471.637,581.436,467.35Z" transform="translate(-534.499 -290.662)" fill="#5f546f"/><path d="M618.867,491.289l-20.415-11.8a.713.713,0,0,1-.255-.979h0a.7.7,0,0,1,.979-.266l20.4,11.8a.723.723,0,0,1,.266.979h0a.723.723,0,0,1-.979.266Z" transform="translate(-532.833 -289.973)" fill="#5f546f"/><path d="M616.847,496.669,596.431,484.86a.713.713,0,0,1-.255-.979h0a.713.713,0,0,1,.979-.255l20.4,11.8a.713.713,0,0,1,.266.979h0A.723.723,0,0,1,616.847,496.669Z" transform="translate(-532.962 -289.629)" fill="#5f546f"/><path d="M614.826,502.038l-20.4-11.8a.723.723,0,0,1-.266-.979h0a.713.713,0,0,1,.979-.255l20.415,11.8a.713.713,0,0,1,.255.979h0a.713.713,0,0,1-.979.255Z" transform="translate(-533.09 -289.285)" fill="#5f546f"/><path d="M612.817,507.418,592.4,495.62a.713.713,0,0,1-.255-.979h0a.7.7,0,0,1,.968-.255l20.415,11.8a.723.723,0,0,1,.266.979h0a.713.713,0,0,1-.979.255Z" transform="translate(-533.219 -288.942)" fill="#5f546f"/><path d="M592.241,449.313l-6.511,3.511V445.59l6.5,3.713Z" transform="translate(-533.622 -292.051)" fill="#40364f"/><path d="M2.3.887a.856.856,0,0,1,.969.137,1.721,1.721,0,0,1,.334,1.2V2.8l-1.139.657V2.784q0-.772-.624-.411a1.237,1.237,0,0,0-.624,1.158,1.188,1.188,0,0,0,.219.767,1.689,1.689,0,0,0,.821.46,2,2,0,0,1,1.029.66,1.916,1.916,0,0,1,.3,1.144A3.689,3.689,0,0,1,3.262,8.1,3.426,3.426,0,0,1,2.3,9.355v.767l-.986.569V9.919a.855.855,0,0,1-.964-.131,1.728,1.728,0,0,1-.329-1.2V8.339l1.139-.66v.342q0,.786.6.438a1.185,1.185,0,0,0,.6-1.109,1.076,1.076,0,0,0-.219-.715,1.861,1.861,0,0,0-.821-.463A2.045,2.045,0,0,1,.3,5.5,2.018,2.018,0,0,1,0,4.32a3.833,3.833,0,0,1,.334-1.6,3.391,3.391,0,0,1,.969-1.262V.569L2.292,0Z" transform="matrix(-0.839, -0.545, 0.545, -0.839, 46.121, 193.798)" fill="#fff"/></g><g transform="translate(136.224 117.266)"><path d="M967.162,343v26.1l-22.6,13.057S944.41,355.885,967.162,343Z" transform="translate(-944.54 -342.959)" fill="#41b8e4"/><rect width="45.227" height="13.046" transform="translate(0 39.168) rotate(-60)" fill="#41b8e4"/><path d="M977.683,349.05v26.1L955.07,388.2S955.156,362.139,977.683,349.05Z" transform="translate(-943.764 -342.513)" fill="#efeff4"/><path d="M955.05,388.2l11.328,6.518,22.613-39.16-11.307-6.507Z" transform="translate(-943.766 -342.513)" fill="#efeff4"/><path d="M988.209,355.11v26.114L965.66,394.27S965.467,368.049,988.209,355.11Z" transform="translate(-942.983 -342.066)" fill="#41b8e4"/><path d="M965.6,394.27l11.285,6.539,22.635-39.16-11.307-6.539Z" transform="translate(-942.988 -342.066)" fill="#41b8e4"/><path d="M998.739,361.2v26.1L976.19,400.36S976.093,374.225,998.739,361.2Z" transform="translate(-942.207 -341.617)" fill="#efeff4"/><path d="M976.11,400.36l11.317,6.518,22.624-39.149L998.745,361.2Z" transform="translate(-942.213 -341.617)" fill="#efeff4"/><path d="M1009.269,367.28v26.1L986.72,406.429S986.731,380.358,1009.269,367.28Z" transform="translate(-941.43 -341.168)" fill="#41b8e4"/><path d="M986.65,406.429l11.285,6.518,22.581-39.16-11.242-6.507Z" transform="translate(-941.435 -341.168)" fill="#41b8e4"/><path d="M1019.741,373.34v26.1L997.16,412.489S996.881,386.247,1019.741,373.34Z" transform="translate(-940.66 -340.721)" fill="#efeff4"/><path d="M997.16,412.5l11.307,6.539,22.613-39.149-11.339-6.55Z" transform="translate(-940.66 -340.721)" fill="#efeff4"/><path d="M1030.3,379.44v26.092l-22.613,13.057S1007.722,392.54,1030.3,379.44Z" transform="translate(-939.883 -340.271)" fill="#41b8e4"/><path d="M1007.69,418.589l11.3,6.529,22.613-39.16-11.3-6.518Z" transform="translate(-939.883 -340.271)" fill="#41b8e4"/><path d="M1040.823,385.51v26.1l-22.613,13.078S1018.21,398.578,1040.823,385.51Z" transform="translate(-939.107 -339.824)" fill="#00a4e1"/></g><g transform="translate(98.406 229.966)"><path d="M529.946,542.35a59.166,59.166,0,0,0-.4,7.012,5.726,5.726,0,0,0,2.595,4.14,6.516,6.516,0,0,0,4.754-1.822c.574-1.05-1.822-2.793-1.723-4.477s1.763-.436,2.159-.773-2.595-4.08-2.595-4.08Z" transform="translate(-527.682 -463.788)" fill="#f9c4aa"/><path d="M530.237,569.027a8.955,8.955,0,0,0,6.953,0s-1.585-20.067-.951-22.107,3.962-9.627,3.962-9.627l.515-21.413a9.168,9.168,0,0,0-2.357,3.269c-1.169,2.377-9.627,23.592-9.746,25.395S530.237,569.027,530.237,569.027Z" transform="translate(-528.607 -489.752)" fill="#00aeef"/><path d="M542.973,569.51c0,.2-.515,4.3,1.466,4.814s4.556-.2,4.754.257a4.417,4.417,0,0,1-2.318,5.249c-1.981,1.109-2.239-.119-3.209.4s-2.377,4.061-5.031,3.486S536,582.366,536,582.366l1.446-11.628Z" transform="translate(-521.356 -437.147)" fill="#ce9795"/><path d="M552.473,550.053s-1.525,27.495-1.981,30.189c-.119.693-.574,2.3-1.189,4.338h0c-1.822,6.121-4.992,16.045-4.992,16.045-4.3,4.655-8.141,1.763-8.141,1.763s4.952-19.1,5.824-21.017-.2-18.739-2.12-21.374-1.347-15.055-1.347-15.055l5.943-4.457,1.981-1.525Z" transform="translate(-521.189 -467.113)" fill="#1e2d64"/><path d="M556.111,578.863s.634,3.328,2.318,3.209,3.189-.713,3.447-.456,1.486,3.328-.376,4.933-7.25,4.873-8.34,4.556-3.269-.891-3.328-1.406.892-9.687,1.981-10.835S556.111,578.863,556.111,578.863Z" transform="translate(-507.791 -428.474)" fill="#ce9795"/><path d="M549.909,550.043s-1.525,27.495-1.981,30.189c-.119.693-.575,2.3-1.188,4.338.892-3.15-1.486-12.42-.555-14.579s-2.1-9.746-5.031-12.2-2.318-9.9-2.318-9.9l3.13-7.389,1.981-1.525Z" transform="translate(-518.626 -467.104)" fill="#0f1446"/><path d="M557.351,613.646s4.417,2.377,7.923,0c0,0,1.6-29.1.832-32.7s-7.686-37.062-8.775-37.439-15.193,3.368-15.193,3.368-.515,11.39,4.477,15.609,10.519,16.8,10.717,18.719S557.351,613.646,557.351,613.646Z" transform="translate(-515.35 -462.683)" fill="#1e2d64"/><path d="M567.109,572.47a36.448,36.448,0,0,1-18.224,4.1l-.614-12.3L545.7,574.55s-6.794-3.625-9.231-7.349c0,0-1.545-20.284-1.981-26.564a218.566,218.566,0,0,1,0-22.542,3.348,3.348,0,0,1,2.793-2.833c1.822-.237,23.374,8.221,25.751,9.9a5.646,5.646,0,0,1,2.5,4.576v.812C565.287,532,567.109,572.47,567.109,572.47Z" transform="translate(-523.128 -490.363)" fill="#00aeef"/><path d="M554.858,533.339s-.238-4.714-.238-5.051,1.367-.238,1.664,1.109A13.134,13.134,0,0,0,559,527.852c.2-.376,1.347-3.744,1.981-3.506s2.219,7.785,1.307,8.993-4.615,5.943-4.615,5.943Z" transform="translate(-503.091 -481.46)" fill="#f9c4aa"/><path d="M549.962,518.752a5.071,5.071,0,0,0-1.822,3.645v1.169h-1.01c-2.278,0-7.686-.238-8.339-2.119l2.753-8.716,4.18,2.991Z" transform="translate(-518.619 -492.842)" fill="#f9c4aa"/><path d="M547.6,568.949c3.09-11.331-5.031-11.489-2.139-13.51s1.723-16.2,1.208-23.335a10.479,10.479,0,0,1,4.457-9.9l3.962.891v.812c-.139,1.347,1.684,41.817,1.684,41.817A34.957,34.957,0,0,1,547.6,568.949Z" transform="translate(-512.694 -483.553)" fill="#5968f6"/><path d="M562.384,535.667s4.358,2.456,3.744,6.834c0,0-7.587,15.193-9.27,16.243a3.447,3.447,0,0,1-4.715-1.248c-.634-1.446-5.071-27.356-5.19-28.9s-.357-6.7,4.279-7.408,6.121,26.247,6.121,26.247Z" transform="translate(-510.658 -484.56)" fill="#00aeef"/><path d="M552.573,508.028s1.208,8.1-.891,12.955c-1.664,3.843-1.842,3.962-2.377,3.843s-9.9-8.379-9.9-8.379S552.236,503.551,552.573,508.028Z" transform="translate(-518.021 -498.381)" fill="#f9c4aa"/><path d="M551.349,519.983s-.139-2.12-1.248-1.822-1.387,4.477.614,4.615c0,0-2.813,5.17-7.745,3.526,0,0-5.725-9.528-6.3-10.756s-1.6-8.716,2.872-11.093,6.1-1.347,6.1-1.347,7.111-2.119,9.9,3.209,1.089,11.232-2.238,12.064a3.269,3.269,0,0,0-1.961,1.6Z" transform="translate(-521.214 -502.69)" fill="#32285f"/><path d="M546.666,517.261a5.07,5.07,0,0,0-1.822,3.645v1.169h-1.01a11.076,11.076,0,0,1,0-2.793c.337-1.6-1.684-5.031-1.684-5.031h.2Z" transform="translate(-515.323 -491.351)" fill="#f4b49a"/></g></g></g><g transform="translate(1271.806 301.886)"><path d="M820.484,494.351l-10.374,5.985,1.058-10.746Z" transform="translate(-656.598 -296.736)" fill="#424bb1"/><path d="M958.363,293.34l-10.413,6.024,4.653,5.251,5.809-2.763Z" transform="translate(-929.553 -292.732)" fill="#424bb1"/><path d="M916.327,490.708v6.651L873.49,472.624v-5.339a4.046,4.046,0,0,1,6.073-3.507l31.807,18.367a9.943,9.943,0,0,1,4.957,8.562Z" transform="translate(-814.528 -296.198)" fill="#424bb1"/><path d="M900.739,474.84h0a5.309,5.309,0,0,1-5.309-5.309V424.469a5.309,5.309,0,0,1,5.309-5.309h0a5.309,5.309,0,0,1,5.309,5.309v45.061A5.309,5.309,0,0,1,900.739,474.84Z" transform="translate(-825.742 -295.299)" fill="#b6b9d1"/><path d="M925.987,463.86l-10.717,6.122L925.2,476.3Z" transform="translate(-865.115 -296.211)" fill="#424bb1"/><path d="M878.408,504.034l10.727-6.191L873.49,486.95Z" transform="translate(-787.335 -296.682)" fill="#424bb1"/><path d="M884.44,478.943l42.877,24.735v-6.651a9.9,9.9,0,0,0-4.9-8.571l-31.9-18.4a4.046,4.046,0,0,0-6.083,3.507Z" transform="translate(-836.244 -296.326)" fill="#5866f2"/><path d="M814.218,293.308,939.41,365.563a15.781,15.781,0,0,1,7.837,13.656v107.4a4.2,4.2,0,0,1-6.3,3.634L815.756,418a15.781,15.781,0,0,1-7.886-13.656V296.913a4.2,4.2,0,0,1,6.348-3.6Z" transform="translate(-781.166 -292.719)" fill="#424bb1"/><path d="M818.77,410.675V303.262a4.2,4.2,0,0,1,6.3-3.644l125.143,72.255a15.781,15.781,0,0,1,7.886,13.656V492.961a4.2,4.2,0,0,1-6.309,3.634L826.607,424.311a15.762,15.762,0,0,1-7.837-13.636Z" transform="translate(-802.695 -292.848)" fill="#5866f2"/><path d="M947.662,474.735a4.193,4.193,0,0,1-6.309,3.634L837.517,418.457a15.674,15.674,0,0,1-7.837-13.577v-82.7a4.144,4.144,0,0,1,1.656-3.331,4.192,4.192,0,0,1,4.653-.313L939.757,378.46a15.761,15.761,0,0,1,7.837,13.646Z" transform="translate(-802.947 -293.234)" fill="#d6dce3"/><path d="M829.706,404.082a15.674,15.674,0,0,0,7.837,13.587l68.5,39.536,35.265,20.376a3.331,3.331,0,0,0,5.5-2.821V418.746h0V392.1a15.752,15.752,0,0,0-7.837-13.646l-15.429-8.9h0L908.867,361.1h0l-20.013-11.559-45.179-26.106-8.434-4.9a3.34,3.34,0,0,0-5.486,2.831Z" transform="translate(-802.13 -293.229)" fill="#313551"/><path d="M829.7,362l37.959,79.445-.01-21.8v-.01l-23.3-49.186h-.01Z" transform="translate(-722.964 -294.132)" fill="#5e6aa5"/><path d="M829.706,323.55l62.371,133.774L927.342,477.7a3.331,3.331,0,0,0,5.5-2.821v-6L874.875,349.656Z" transform="translate(-788.161 -293.348)" fill="#5e6aa5"/><path d="M961.584,397.31l-60.735-35.089c-3.723-2.145-6.749-.4-6.749,3.918v46.306a14.939,14.939,0,0,0,6.75,11.7l60.735,35.089c3.732,2.155,6.759.4,6.759-3.918V409.006a14.939,14.939,0,0,0-6.759-11.7Z" transform="translate(-886.733 -294.118)" fill="#a458c7"/><path d="M969.114,401.48l-60.735-35.089c-3.732-2.145-6.749-.4-6.749,3.918v46.305a14.91,14.91,0,0,0,6.75,11.7L969.114,463.4c3.732,2.155,6.749.4,6.749-3.918V413.167A14.909,14.909,0,0,0,969.114,401.48Z" transform="translate(-901.63 -294.203)" fill="#e1a1ff" opacity="0.8"/><ellipse cx="7.572" cy="4.369" rx="7.572" ry="4.369" transform="translate(59.189 138.398) rotate(-120)" fill="#a458c7"/><path d="M925.193,451.876,909,442.521V434.2c0-3.233,2.273-4.545,5.074-2.939l6.044,3.487a11.216,11.216,0,0,1,5.074,8.816Z" transform="translate(-858.179 -295.532)" fill="#a458c7"/><path d="M937.517,417.576,933.05,415v20.415l4.467,2.576Z" transform="translate(-894.062 -295.214)" fill="#a458c7"/><path d="M944.063,406.5,939.4,403.82V431.4l4.663,2.684Z" transform="translate(-906.828 -294.986)" fill="#a458c7"/><path d="M951.273,395.734l-4.653-2.684v34.041l4.663,2.694Z" transform="translate(-921.121 -294.766)" fill="#a458c7"/><path d="M958.493,404.564l-4.653-2.694v21.316l4.663,2.694Z" transform="translate(-935.414 -294.946)" fill="#a458c7"/><path d="M965.713,381.084,961.06,378.4v40.222l4.663,2.694Z" transform="translate(-949.706 -294.467)" fill="#a458c7"/></g><g transform="translate(1257.627 423.496)"><path d="M1020.593,470.79l9.994,4.979-1.941-15.71-10.515-4.8Z" transform="translate(-1017.209 -437.824)" fill="#8499f0"/><path d="M1021.45,472.735a19.961,19.961,0,0,0-1.564-3.181c-.4-.413-2.193-1.69-2.265-2.445s.791-1.4.737-1.456a6.091,6.091,0,0,1,.431-2.768c.485-1.06,2.678-3.595,3.271-3.595s2.516,1.132,2.211,2.373-.917,7.19-.917,7.19l.845,2.588Z" transform="translate(-1017.618 -434.611)" fill="#f9c4aa"/><path d="M1034.263,514.75l-6.633,12.385s1.492,2.948,3.865,2.157,4.871-4.8,6.777-5.123a5.752,5.752,0,0,0,2.894-1.33l-2.5-8.089Z" transform="translate(-1009.633 -390.383)" fill="#b77983"/><path d="M1039.206,531.411c1.007,6.938,2.175,14.146,2.175,14.146-5.59,2.948-8.987-.4-8.987-.4s-3.811-24.625-4.206-27.322.719-39.4.719-39.4l10.407,1.959v.234l2.013,23.78s-3.127,12.726-3.595,14.488a91.752,91.752,0,0,0,1.4,12.492Z" transform="translate(-1009.256 -419.339)" fill="#1e2d64"/><path d="M1036.959,530.42c0-.288-1.8-6.327-3.721-8.52s-1.8-2.894-.719-4.835.935-18.37-.737-21.12-.4-10.641-.4-10.641l.4-4.763,5.392-.881,2.013,23.781s-3.128,12.726-3.595,14.488a91.629,91.629,0,0,0,1.366,12.492Z" transform="translate(-1007.009 -418.366)" fill="#0f1446"/><path d="M1042.806,521.241s-4.548,10.03-4.673,10.785,1.708,3.289,5.069,2.049,4.4-3.757,5.392-4.152,1.8-1.132,1.582-2.085-2.373-7.388-2.373-7.388Z" transform="translate(-1001.262 -385.838)" fill="#b77983"/><path d="M1047,554.26s4.745,1.905,7.765-.665c0,0-7.891-32.121-8.035-34.817s.144-22.5.467-23.565,3.595-10.533.521-15.063l-16.321.9s-.809,10.084.953,11.2,4.512,24.949,4.907,28.975S1047,554.26,1047,554.26Z" transform="translate(-1006.773 -417.975)" fill="#1e2d64"/><path d="M1018.73,473.17a9.635,9.635,0,0,1,5.231-2.894s3.811,7.316,4.26,7.549,7.01-17.687,7.531-18.083.665,17.112.665,17.112-7.01,11.234-7.406,11.755a1.42,1.42,0,0,1-2.283-.4C1026.028,487.172,1018.73,473.17,1018.73,473.17Z" transform="translate(-1016.73 -434.255)" fill="#04a8ed"/><path d="M1028,496.434V462.893c0-1.186,0-3.4,2.588-4.1s17.112.162,19.772,2.588,1.8,40.371,1.8,40.371S1033.788,507.47,1028,496.434Z" transform="translate(-1009.338 -435.194)" fill="#00aeef"/><path d="M1050.1,469.64s-1.69,16.177-3.091,16.986c-2.067,1.294-16.411,5.842-16.411,5.842s9.976-9.185,10.785-9.311S1050.1,469.64,1050.1,469.64Z" transform="translate(-1007.264 -426.357)" fill="#5968f6"/><path d="M1038.914,462.865c-5.878,2.8-6.974-.7-6.974-.7v-3.739l3.954-2.031,3.02-1.564S1039,462.6,1038.914,462.865Z" transform="translate(-1006.195 -438.167)" fill="#f9c4aa"/><path d="M1037.424,456.131s-1.294,5.141-4.278,4.709a4.589,4.589,0,0,1-1.186-.305v-2.8l3.954-2.031Z" transform="translate(-1006.18 -437.474)" fill="#f4b49a"/><path d="M1029.705,451.97s.54,6.147,2.067,8.7,2.588,3.056,3.469,2.984A49.53,49.53,0,0,0,1041.82,459l2.013-4.655s-8.106-4.044-8.5-4.386a20.777,20.777,0,0,0-4.475-.4A2.3,2.3,0,0,0,1029.705,451.97Z" transform="translate(-1008.005 -442.372)" fill="#f9c4aa"/><path d="M1031.174,480.412a12.459,12.459,0,0,0-2.768-1.312c-.4,0-.4,2.534-.845,2.678s-2.8,1.8-2.678,2.193,2.948,5.177,4.17,5.087,2.067.126,2.948-.521a29.334,29.334,0,0,0,3.164-4.458l-2.031-4.278Z" transform="translate(-1011.828 -418.813)" fill="#f9c4aa"/><path d="M1029.19,494.476s0,4.188,2.534,5.626c0,0,15.045-7.19,16.178-8.556s4.17-18.73,4.6-20.923,1.959-8.412-2.984-10.443-6.309,24.05-7.19,25.883S1029.19,494.476,1029.19,494.476Z" transform="translate(-1008.389 -433.991)" fill="#04a8ed"/><path d="M1041.193,460.155a1.636,1.636,0,0,1,1.456-1.438c1.312-.126.5,3.505-1.312,3.685l.377,3.164,4.62-9.221s.791-10.785-8.125-10.785c-8.466,0-8.682,5.392-8.682,5.392s-3.218,5.033,1.6,7.675l.413-3.595a6.273,6.273,0,0,0,6.669,5.141C1041.282,459.8,1041.193,460.155,1041.193,460.155Z" transform="translate(-1008.959 -445.56)" fill="#32285f"/></g><g transform="translate(1292.352 547.081)"><path d="M1031.905,563.564c-10.353,5.99-27.15,5.99-37.516,0s-10.366-15.675,0-21.665,27.163-5.977,37.516,0S1042.271,557.586,1031.905,563.564Z" transform="translate(-933.543 -508.393)" fill="#fcbb51"/><path d="M1031.905,561.244c-10.353,5.977-27.15,5.977-37.516,0s-10.366-15.675,0-21.665,27.163-5.977,37.516,0S1042.271,555.266,1031.905,561.244Z" transform="translate(-933.543 -508.999)" fill="#ffcd5e"/><ellipse cx="21.463" cy="12.396" rx="21.463" ry="12.396" transform="translate(58.148 29.016)" fill="#f9d895"/><path d="M1005.043,552.656l-1.425.82-2.648-1.538,1.412-.82c-1.929-1.7-1.261-3.4,0-4.136l2.875,1.665s-1.375.933.568,2.068a4.01,4.01,0,0,0,3.291.391c1.412-.82-1.047-2.358-1.614-2.837-1.034-.908-2.648-2.522-.568-3.707a8.828,8.828,0,0,1,6.835,0l1.425-.82,2.661,1.538-1.425.82c1.728,1.463,1.5,2.825.265,3.543l-2.736-1.576c.277-.164.4-.782-1.021-1.589a3.506,3.506,0,0,0-3.115-.24c-.9.517.807,1.5,1.261,1.929,1.261,1.047,3.783,2.913.857,4.615C1010.415,553.664,1007.49,553.576,1005.043,552.656Z" transform="translate(-929.795 -506.741)" fill="#ea9f32"/><ellipse cx="26.532" cy="15.322" rx="26.532" ry="15.322" transform="translate(53.079 23.165)" fill="#fcbb51"/><path d="M1031.905,556.6c-10.353,5.977-27.15,5.977-37.516,0s-10.366-15.687,0-21.665,27.163-5.977,37.516,0S1042.271,550.613,1031.905,556.6Z" transform="translate(-933.543 -510.209)" fill="#ffcd5e"/><path d="M1027.274,553.93c-8.386,4.83-21.967,4.83-30.353,0s-8.373-12.686,0-17.529,21.967-4.842,30.353,0S1035.66,549.088,1027.274,553.93Z" transform="translate(-932.493 -509.605)" fill="#f9d895"/><path d="M1005.043,548l-1.425.82-2.648-1.526,1.412-.82c-1.929-1.7-1.261-3.4,0-4.136l2.875,1.665s-1.375.933.568,2.056a3.972,3.972,0,0,0,3.291.4c1.412-.82-1.047-2.358-1.614-2.85-1.034-.9-2.648-2.522-.568-3.695a8.828,8.828,0,0,1,6.835,0l1.425-.82,2.661,1.538-1.425.82c1.728,1.463,1.5,2.825.265,3.544l-2.736-1.576c.277-.164.4-.782-1.021-1.6a3.493,3.493,0,0,0-3.115-.227c-.9.517.807,1.5,1.261,1.929,1.261,1.047,3.783,2.913.857,4.615C1010.415,549.062,1007.49,548.936,1005.043,548Z" transform="translate(-929.795 -507.952)" fill="#ea9f32"/><path d="M1031.905,554.283c-10.353,5.977-27.15,5.977-37.516,0s-10.366-15.687,0-21.665,27.163-5.977,37.516,0S1042.271,548.293,1031.905,554.283Z" transform="translate(-933.543 -510.815)" fill="#fcbb51"/><ellipse cx="26.532" cy="15.322" rx="26.532" ry="15.322" transform="translate(53.079 14.388)" fill="#ffcd5e"/><ellipse cx="21.463" cy="12.396" rx="21.463" ry="12.396" transform="translate(58.148 17.314)" fill="#f9d895"/><path d="M1005.035,543.353l-1.425.82L1001,542.7l1.412-.82c-1.929-1.7-1.261-3.417,0-4.136l2.875,1.665s-1.375.933.568,2.055a4.073,4.073,0,0,0,3.291.4c1.412-.82-1.047-2.358-1.614-2.85-1.034-.9-2.648-2.522-.568-3.695a8.739,8.739,0,0,1,6.835,0l1.425-.82,2.661,1.526-1.425.82c1.728,1.463,1.5,2.837.265,3.556l-2.736-1.589c.277-.164.4-.769-1.021-1.589a3.493,3.493,0,0,0-3.115-.227c-.9.5.807,1.488,1.261,1.929,1.261,1.034,3.783,2.913.858,4.615C1010.407,544.374,1007.482,544.286,1005.035,543.353Z" transform="translate(-929.788 -509.153)" fill="#ea9f32"/><ellipse cx="26.532" cy="15.322" rx="26.532" ry="15.322" transform="translate(26.521 43.909)" fill="#fcbb51"/><ellipse cx="26.532" cy="15.322" rx="26.532" ry="15.322" transform="translate(26.521 40.984)" fill="#ffcd5e"/><ellipse cx="21.463" cy="12.396" rx="21.463" ry="12.396" transform="translate(31.591 43.909)" fill="#f9d895"/><path d="M984,564.463l-1.425.82-2.661-1.589,1.425-.82c-1.929-1.69-1.261-3.4,0-4.124l2.888,1.665s-1.387.933.568,2.055a4.035,4.035,0,0,0,3.279.4c1.425-.82-1.034-2.358-1.6-2.85-1.034-.908-2.648-2.522-.568-3.695a8.739,8.739,0,0,1,6.835,0l1.425-.82,2.648,1.526-1.412.82c1.728,1.463,1.5,2.837.265,3.556l-2.762-1.5c.277-.164.4-.769-1.021-1.589a3.506,3.506,0,0,0-3.115-.24c-.9.517.807,1.5,1.261,1.942,1.261,1.034,3.783,2.913.858,4.6C989.368,565.485,986.442,565.384,984,564.463Z" transform="translate(-935.293 -503.669)" fill="#ea9f32"/><ellipse cx="26.532" cy="15.322" rx="26.532" ry="15.322" transform="translate(26.521 38.046)" fill="#fcbb51"/><path d="M1010.854,568.414c-10.366,5.99-27.163,5.99-37.516,0s-10.366-15.675,0-21.665,27.15-5.977,37.516,0S1021.22,562.424,1010.854,568.414Z" transform="translate(-939.036 -507.127)" fill="#ffcd5e"/><path d="M1006.225,565.727c-8.386,4.842-21.967,4.842-30.353,0s-8.386-12.686,0-17.516,21.967-4.842,30.353,0S1014.6,560.884,1006.225,565.727Z" transform="translate(-937.989 -506.521)" fill="#f9d895"/><path d="M984,559.846l-1.425.82-2.661-1.538,1.425-.82c-1.929-1.69-1.261-3.4,0-4.124l2.888,1.652s-1.387.946.568,2.068a3.985,3.985,0,0,0,3.279.391c1.425-.82-1.034-2.346-1.6-2.837-1.034-.908-2.648-2.522-.568-3.707a8.827,8.827,0,0,1,6.835,0l1.425-.82,2.648,1.538-1.412.82c1.728,1.463,1.5,2.837.265,3.544l-2.736-1.576c.277-.164.4-.769-1.021-1.589a3.506,3.506,0,0,0-3.115-.24c-.9.517.807,1.5,1.261,1.929,1.261,1.047,3.783,2.926.858,4.615C989.368,560.829,986.442,560.728,984,559.846Z" transform="translate(-935.293 -504.864)" fill="#ea9f32"/><ellipse cx="26.532" cy="15.322" rx="26.532" ry="15.322" transform="translate(26.521 32.194)" fill="#fcbb51"/><path d="M1010.854,563.764c-10.366,5.977-27.163,5.977-37.516,0s-10.366-15.675,0-21.665,27.15-5.977,37.516,0S1021.22,557.786,1010.854,563.764Z" transform="translate(-939.036 -508.341)" fill="#ffcd5e"/><ellipse cx="21.463" cy="12.396" rx="21.463" ry="12.396" transform="translate(31.591 32.194)" fill="#f9d895"/><path d="M984,555.17l-1.45.845-2.661-1.538,1.425-.82c-1.929-1.7-1.261-3.4,0-4.136l2.888,1.665s-1.387.933.568,2.068a3.985,3.985,0,0,0,3.279.391c1.425-.82-1.034-2.345-1.6-2.837-1.034-.908-2.648-2.522-.568-3.707a8.827,8.827,0,0,1,6.835,0l1.425-.82,2.648,1.538-1.412.82c1.728,1.463,1.5,2.825.265,3.544l-2.736-1.576c.277-.164.4-.769-1.021-1.589a3.506,3.506,0,0,0-3.115-.24c-.9.517.807,1.5,1.261,1.929,1.261,1.047,3.783,2.913.858,4.615C989.373,556.179,986.447,556.091,984,555.17Z" transform="translate(-935.298 -506.078)" fill="#ea9f32"/><path d="M1010.854,561.414c-10.366,5.977-27.163,5.977-37.516,0s-10.366-15.675,0-21.665,27.15-5.977,37.516,0S1021.22,555.474,1010.854,561.414Z" transform="translate(-939.036 -508.954)" fill="#fcbb51"/><ellipse cx="26.532" cy="15.322" rx="26.532" ry="15.322" transform="translate(26.521 23.417)" fill="#ffcd5e"/><path d="M1006.225,556.45c-8.386,4.83-21.967,4.83-30.353,0s-8.386-12.686,0-17.528,21.967-4.842,30.353,0S1014.6,551.608,1006.225,556.45Z" transform="translate(-937.989 -508.947)" fill="#f9d895"/><path d="M984,550.523l-1.425.82-2.661-1.526,1.425-.82c-1.929-1.7-1.261-3.4,0-4.136l2.888,1.665s-1.387.933.568,2.055a3.946,3.946,0,0,0,3.279.4c1.425-.82-1.034-2.358-1.6-2.85-1.034-.9-2.648-2.522-.568-3.695a8.827,8.827,0,0,1,6.835,0l1.425-.82,2.648,1.538-1.412.82c1.728,1.463,1.5,2.825.265,3.544l-2.762-1.639c.277-.164.4-.782-1.021-1.6a3.493,3.493,0,0,0-3.115-.227c-.9.517.807,1.5,1.261,1.929,1.261,1.047,3.783,2.913.858,4.615C989.368,551.544,986.442,551.456,984,550.523Z" transform="translate(-935.293 -507.295)" fill="#ea9f32"/><ellipse cx="26.532" cy="15.322" rx="26.532" ry="15.322" transform="translate(26.521 20.492)" fill="#fcbb51"/><path d="M1010.854,554.484c-10.366,5.977-27.163,5.977-37.516,0s-10.366-15.687,0-21.665,27.15-5.99,37.516,0S1021.22,548.494,1010.854,554.484Z" transform="translate(-939.036 -510.764)" fill="#ffcd5e"/><ellipse cx="21.463" cy="12.396" rx="21.463" ry="12.396" transform="translate(31.591 20.492)" fill="#f9d895"/><path d="M984,545.843l-1.425.82-2.661-1.526,1.425-.82c-1.929-1.7-1.261-3.417,0-4.136l2.888,1.665s-1.387.933.568,2.056a4.035,4.035,0,0,0,3.279.4c1.425-.82-1.034-2.358-1.6-2.85-1.034-.9-2.648-2.522-.568-3.695a8.739,8.739,0,0,1,6.835,0l1.425-.82,2.648,1.526-1.412.82c1.728,1.463,1.5,2.837.265,3.556l-2.736-1.589c.277-.164.4-.769-1.021-1.589a3.494,3.494,0,0,0-3.115-.227c-.9.5.807,1.488,1.261,1.929,1.261,1.034,3.783,2.913.858,4.615C989.368,546.915,986.442,546.827,984,545.843Z" transform="translate(-935.293 -508.516)" fill="#ea9f32"/><ellipse cx="26.532" cy="15.322" rx="26.532" ry="15.322" transform="translate(26.521 14.641)" fill="#fcbb51"/><ellipse cx="26.532" cy="15.322" rx="26.532" ry="15.322" transform="translate(26.521 11.715)" fill="#ffcd5e"/><ellipse cx="21.463" cy="12.396" rx="21.463" ry="12.396" transform="translate(31.591 14.641)" fill="#f9d895"/><path d="M984,541.246l-1.425.82-2.661-1.538,1.425-.82c-1.929-1.69-1.261-3.4,0-4.124l2.888,1.665s-1.387.933.568,2.056a4.035,4.035,0,0,0,3.279.4c1.425-.82-1.034-2.358-1.6-2.85-1.034-.908-2.648-2.522-.568-3.707a8.827,8.827,0,0,1,6.835,0l1.425-.82,2.648,1.526-1.412.82c1.728,1.463,1.5,2.837.265,3.556l-2.736-1.589c.277-.164.4-.769-1.021-1.589a3.506,3.506,0,0,0-3.115-.24c-.9.517.807,1.5,1.261,1.942,1.261,1.034,3.783,2.913.858,4.6C989.368,542.267,986.442,542.166,984,541.246Z" transform="translate(-935.293 -509.72)" fill="#ea9f32"/><ellipse cx="26.532" cy="15.322" rx="26.532" ry="15.322" transform="translate(26.521 8.777)" fill="#fcbb51"/><path d="M1010.854,545.194c-10.366,5.99-27.163,5.99-37.516,0s-10.366-15.675,0-21.665,27.15-5.977,37.516,0S1021.22,539.166,1010.854,545.194Z" transform="translate(-939.036 -513.188)" fill="#ffcd5e"/><path d="M1006.225,542.517c-8.386,4.842-21.967,4.842-30.353,0s-8.386-12.686,0-17.516,21.967-4.842,30.353,0S1014.6,537.674,1006.225,542.517Z" transform="translate(-937.989 -512.58)" fill="#f9d895"/><path d="M984,536.606l-1.425.82-2.661-1.538,1.425-.82c-1.929-1.69-1.261-3.4,0-4.136l2.888,1.665s-1.387.946.568,2.068a3.985,3.985,0,0,0,3.279.391c1.425-.82-1.034-2.346-1.6-2.837-1.034-.908-2.648-2.522-.568-3.707a8.827,8.827,0,0,1,6.835,0l1.425-.82,2.648,1.538-1.412.82c1.728,1.463,1.5,2.837.265,3.543l-2.736-1.576c.277-.164.4-.769-1.021-1.589a3.506,3.506,0,0,0-3.115-.24c-.9.517.807,1.5,1.261,1.929,1.261,1.047,3.783,2.926.858,4.615C989.368,537.627,986.442,537.526,984,536.606Z" transform="translate(-935.293 -510.931)" fill="#ea9f32"/><ellipse cx="26.532" cy="15.322" rx="26.532" ry="15.322" transform="translate(26.521 2.926)" fill="#fcbb51"/><ellipse cx="26.532" cy="15.322" rx="26.532" ry="15.322" transform="translate(26.521 0)" fill="#ffcd5e"/><ellipse cx="21.463" cy="12.396" rx="21.463" ry="12.396" transform="translate(31.591 2.926)" fill="#f9d895"/><path d="M984,531.966l-1.425.82-2.661-1.538,1.425-.82c-1.929-1.7-1.261-3.4,0-4.136l2.888,1.665s-1.387.933.568,2.068a3.984,3.984,0,0,0,3.279.391c1.425-.82-1.034-2.358-1.6-2.85-1.034-.9-2.648-2.522-.568-3.695a8.827,8.827,0,0,1,6.835,0l1.425-.82,2.648,1.538-1.412.82c1.728,1.463,1.5,2.825.265,3.544l-2.736-1.576c.277-.164.4-.782-1.021-1.589a3.506,3.506,0,0,0-3.115-.24c-.9.517.807,1.5,1.261,1.929,1.261,1.047,3.783,2.913.858,4.615C989.368,532.974,986.442,532.886,984,531.966Z" transform="translate(-935.293 -512.142)" fill="#ea9f32"/><ellipse cx="26.532" cy="15.322" rx="26.532" ry="15.322" transform="translate(0.002 60)" fill="#fcbb51"/><path d="M989.814,585.814c-10.353,5.977-27.163,5.977-37.516,0s-10.366-15.675,0-21.665,27.163-5.977,37.516,0S1000.18,579.836,989.814,585.814Z" transform="translate(-944.529 -502.585)" fill="#ffcd5e"/><path d="M985.185,583.139c-8.386,4.842-21.967,4.842-30.353,0s-8.386-12.686,0-17.529,21.967-4.83,30.353,0S993.571,578.3,985.185,583.139Z" transform="translate(-943.481 -501.979)" fill="#f9d895"/><path d="M962.951,577.233l-1.4.782-2.661-1.538,1.425-.82c-1.929-1.7-1.261-3.4,0-4.136l2.888,1.665s-1.375.933.568,2.068a3.984,3.984,0,0,0,3.279.391c1.425-.82-1.034-2.358-1.6-2.837-1.034-.908-2.648-2.522-.568-3.708a8.827,8.827,0,0,1,6.835,0l1.425-.82,2.661,1.538-1.425.82c1.728,1.463,1.5,2.825.265,3.544l-2.736-1.576c.277-.164.4-.782-1.021-1.589a3.506,3.506,0,0,0-3.115-.24c-.9.517.807,1.5,1.261,1.929,1.261,1.047,3.783,2.913.857,4.615C968.323,578.242,965.4,578.154,962.951,577.233Z" transform="translate(-940.78 -500.335)" fill="#ea9f32"/><ellipse cx="26.532" cy="15.322" rx="26.532" ry="15.322" transform="translate(0.002 54.149)" fill="#fcbb51"/><ellipse cx="26.532" cy="15.322" rx="26.532" ry="15.322" transform="translate(0.002 51.223)" fill="#ffcd5e"/><ellipse cx="21.463" cy="12.396" rx="21.463" ry="12.396" transform="translate(5.071 54.149)" fill="#f9d895"/><path d="M962.956,572.573l-1.425.82-2.661-1.526,1.425-.82c-1.929-1.7-1.261-3.4,0-4.136l2.888,1.665s-1.375.933.568,2.055a3.947,3.947,0,0,0,3.279.4c1.425-.82-1.034-2.358-1.6-2.85-1.034-.9-2.648-2.522-.568-3.695a8.828,8.828,0,0,1,6.835,0l1.425-.82,2.661,1.538-1.425.82c1.728,1.463,1.5,2.825.265,3.544L971.884,568c.277-.164.4-.782-1.021-1.6a3.493,3.493,0,0,0-3.115-.227c-.9.517.807,1.5,1.261,1.93,1.261,1.047,3.783,2.913.857,4.615C968.328,573.594,965.4,573.506,962.956,572.573Z" transform="translate(-940.785 -501.539)" fill="#ea9f32"/><ellipse cx="26.532" cy="15.322" rx="26.532" ry="15.322" transform="translate(0.002 48.298)" fill="#fcbb51"/><path d="M989.814,576.534c-10.353,5.977-27.163,5.977-37.516,0s-10.366-15.687,0-21.665,27.163-5.99,37.516,0S1000.18,570.544,989.814,576.534Z" transform="translate(-944.529 -505.008)" fill="#ffcd5e"/><ellipse cx="21.463" cy="12.396" rx="21.463" ry="12.396" transform="translate(5.071 48.298)" fill="#f9d895"/><path d="M962.956,567.933l-1.425.82-2.661-1.526,1.425-.82c-1.929-1.7-1.261-3.417,0-4.136l2.888,1.665s-1.375.933.568,2.055a4.035,4.035,0,0,0,3.279.4c1.425-.82-1.034-2.358-1.6-2.85-1.034-.9-2.648-2.522-.568-3.695a8.739,8.739,0,0,1,6.835,0l1.425-.82,2.661,1.526-1.425.82c1.728,1.463,1.5,2.837.265,3.556l-2.736-1.589c.277-.164.4-.769-1.021-1.589a3.493,3.493,0,0,0-3.115-.227c-.9.5.807,1.488,1.261,1.93,1.261,1.034,3.783,2.913.857,4.615C968.328,568.954,965.4,568.866,962.956,567.933Z" transform="translate(-940.785 -502.75)" fill="#ea9f32"/><ellipse cx="26.532" cy="15.322" rx="26.532" ry="15.322" transform="translate(0.002 42.447)" fill="#fcbb51"/><path d="M989.814,571.881c-10.353,5.99-27.163,5.99-37.516,0s-10.366-15.675,0-21.652,27.163-5.99,37.516,0S1000.18,565.9,989.814,571.881Z" transform="translate(-944.529 -506.219)" fill="#ffcd5e"/><path d="M985.185,569.207c-8.386,4.842-21.967,4.842-30.353,0s-8.386-12.686,0-17.516,21.967-4.842,30.353,0S993.571,564.377,985.185,569.207Z" transform="translate(-943.481 -505.613)" fill="#f9d895"/><path d="M962.956,563.3l-1.425.82-2.661-1.538,1.425-.82c-1.929-1.69-1.261-3.4,0-4.124l2.888,1.665s-1.375.933.568,2.055a4.035,4.035,0,0,0,3.279.4c1.425-.82-1.034-2.358-1.6-2.85-1.034-.908-2.648-2.522-.568-3.707a8.828,8.828,0,0,1,6.835,0l1.425-.82,2.661,1.526-1.425.82c1.728,1.463,1.5,2.837.265,3.544l-2.736-1.576c.277-.164.4-.769-1.021-1.589a3.506,3.506,0,0,0-3.115-.24c-.9.517.807,1.5,1.261,1.942,1.261,1.034,3.783,2.913.857,4.6C968.328,564.317,965.4,564.216,962.956,563.3Z" transform="translate(-940.785 -503.964)" fill="#ea9f32"/><path d="M989.814,569.561c-10.353,5.99-27.163,5.99-37.516,0s-10.366-15.675,0-21.652,27.163-5.99,37.516,0S1000.18,563.584,989.814,569.561Z" transform="translate(-944.529 -506.824)" fill="#fcbb51"/><ellipse cx="26.532" cy="15.322" rx="26.532" ry="15.322" transform="translate(0.002 33.657)" fill="#ffcd5e"/><ellipse cx="21.463" cy="12.396" rx="21.463" ry="12.396" transform="translate(5.071 36.583)" fill="#f9d895"/><path d="M962.956,558.656l-1.425.82-2.661-1.538,1.425-.82c-1.929-1.69-1.261-3.4,0-4.136l2.888,1.665s-1.375.946.568,2.068a3.985,3.985,0,0,0,3.279.391c1.425-.82-1.034-2.346-1.6-2.837-1.034-.908-2.648-2.522-.568-3.707a8.828,8.828,0,0,1,6.835,0l1.425-.82,2.661,1.538-1.425.82c1.728,1.463,1.5,2.837.265,3.544l-2.736-1.576c.277-.164.4-.769-1.021-1.589a3.506,3.506,0,0,0-3.115-.24c-.9.517.807,1.5,1.261,1.929,1.261,1.047,3.783,2.926.857,4.615C968.328,559.677,965.4,559.576,962.956,558.656Z" transform="translate(-940.785 -505.175)" fill="#ea9f32"/><ellipse cx="26.532" cy="15.322" rx="26.532" ry="15.322" transform="translate(0.002 30.731)" fill="#fcbb51"/><ellipse cx="26.532" cy="15.322" rx="26.532" ry="15.322" transform="translate(0.002 27.806)" fill="#ffcd5e"/><path d="M985.185,559.929c-8.386,4.842-21.967,4.842-30.353,0s-8.386-12.686,0-17.528,21.967-4.83,30.353,0S993.571,555.087,985.185,559.929Z" transform="translate(-943.481 -508.038)" fill="#f9d895"/><path d="M962.956,554l-1.425.82-2.661-1.538,1.425-.757c-1.929-1.7-1.261-3.4,0-4.136l2.888,1.665s-1.375.933.568,2.068a3.985,3.985,0,0,0,3.279.391c1.425-.82-1.034-2.358-1.6-2.85-1.034-.9-2.648-2.522-.568-3.695a8.828,8.828,0,0,1,6.835,0l1.425-.82,2.661,1.538-1.425.82c1.728,1.463,1.5,2.825.265,3.544l-2.736-1.576c.277-.164.4-.782-1.021-1.6a3.531,3.531,0,0,0-3.115-.227c-.9.517.807,1.5,1.261,1.929,1.261,1.047,3.783,2.913.857,4.615C968.328,555.049,965.4,554.923,962.956,554Z" transform="translate(-940.785 -506.373)" fill="#ea9f32"/></g><g transform="translate(1152.583 342.912)"><path d="M579.1,577.332l62.043-35.814a7.478,7.478,0,0,1,6.784,0l32.964,19.029c1.866,1.084,1.866,2.837,0,3.922l-62.018,35.8a7.566,7.566,0,0,1-6.8,0L579.1,581.254C577.223,580.169,577.223,578.416,579.1,577.332Z" transform="translate(-577.693 -536.657)" fill="#1e2d64"/><path d="M579.1,574.122l62.043-35.813a7.478,7.478,0,0,1,6.784,0l32.964,19.029c1.866,1.084,1.866,2.837,0,3.922l-62.018,35.8a7.566,7.566,0,0,1-6.8,0L579.1,578.044C577.223,576.959,577.223,575.206,579.1,574.122Z" transform="translate(-577.693 -537.495)" fill="#04a8ed" opacity="0.8"/><path d="M619.619,580l-2.32,1.337L597.16,569.719l2.333-1.349Z" transform="translate(-572.611 -529.435)" fill="#fff"/><path d="M620.707,576.246l-2.333,1.349-7.074-4.086,2.32-1.349Z" transform="translate(-568.92 -528.446)" fill="#fff"/><path d="M623.835,573.69l-2.333,1.349-3.922-2.27,2.333-1.349Z" transform="translate(-567.28 -528.639)" fill="#fff"/><path d="M628.526,572.037l-2.32,1.337-8.335-4.8,2.32-1.349Z" transform="translate(-567.205 -529.735)" fill="#fff"/><path d="M632.057,569.7l-2.333,1.349-7.074-4.086,2.32-1.349Z" transform="translate(-565.957 -530.156)" fill="#fff"/><path d="M636.944,568.155l-2.333,1.349-12.421-7.175,2.333-1.349Z" transform="translate(-566.077 -531.364)" fill="#fff"/><path d="M641.69,566.534l-2.32,1.337L622.27,558l2.32-1.337Z" transform="translate(-566.056 -532.492)" fill="#fff"/><path d="M644.786,563.947l-2.32,1.349-13.8-7.97,2.32-1.337Z" transform="translate(-564.385 -532.667)" fill="#fff"/><path d="M650.56,562.913l-2.333,1.337L624.86,550.757l2.32-1.337Z" transform="translate(-565.38 -534.382)" fill="#fff"/><path d="M655.661,561.485l-2.333,1.349L623.58,545.659l2.32-1.349Z" transform="translate(-565.714 -535.716)" fill="#fff"/></g></g></svg>